<svg xmlns="http://www.w3.org/2000/svg" width="18.318" height="18.318" viewBox="0 0 18.318 18.318">
  <path id="grin" d="M9.159,8a9.159,9.159,0,1,0,9.159,9.159A9.158,9.158,0,0,0,9.159,8Zm0,16.546a7.386,7.386,0,1,1,7.386-7.386A7.394,7.394,0,0,1,9.159,24.546Zm3.9-5.592a13.708,13.708,0,0,1-3.9.484,13.726,13.726,0,0,1-3.9-.484.507.507,0,0,0-.654.565c.292,1.74,2.633,2.955,4.554,2.955s4.258-1.215,4.554-2.955a.509.509,0,0,0-.654-.565ZM6.2,16.568a1.182,1.182,0,1,0-1.182-1.182A1.181,1.181,0,0,0,6.2,16.568Zm5.909,0a1.182,1.182,0,1,0-1.182-1.182A1.181,1.181,0,0,0,12.114,16.568Z" transform="translate(0 -8)" fill="#282c33"/>
</svg>
