<svg xmlns="http://www.w3.org/2000/svg" width="18.665" height="18.665" viewBox="0 0 18.665 18.665">
  <path id="phone-alt" d="M17.653,12.024l-3.7-1.588A1.672,1.672,0,0,0,12,10.914l-1.192,1.458A11.34,11.34,0,0,1,6.284,7.848L7.742,6.656a1.674,1.674,0,0,0,.478-1.947l-1.585-3.7A1.663,1.663,0,0,0,4.727.037L1.294.829A1.662,1.662,0,0,0,0,2.455a16.2,16.2,0,0,0,16.206,16.2,1.662,1.662,0,0,0,1.625-1.294l.791-3.435A1.668,1.668,0,0,0,17.653,12.024Zm-1.516,4.888A14.453,14.453,0,0,1,1.75,2.521l3.306-.762L6.59,5.339,4.108,7.37a13.2,13.2,0,0,0,7.181,7.181l2.03-2.483L16.9,13.6Z" transform="translate(0 0.006)" fill="#282c33"/>
</svg>
