<svg xmlns="http://www.w3.org/2000/svg" width="17.237" height="17.227" viewBox="0 0 17.237 17.227">
  <path id="Tracé_466" data-name="Tracé 466" d="M10.285,5.234a9.012,9.012,0,0,0-9.4,9.259c0,4.676,3.435,7.967,8.3,7.967a10.293,10.293,0,0,0,2.112-.215l.308-1.487a8.557,8.557,0,0,1-2.153.236c-4.132.01-6.962-2.635-6.962-6.521A7.584,7.584,0,0,1,10.131,6.69c3.866,0,6.419,2.153,6.419,5.4,0,2.553-1.251,4.6-2.83,4.6a.8.8,0,0,1-.9-.841,2.49,2.49,0,0,1,.041-.431l1.2-5.476H12.264L12,11.233l-.174-.01A2.447,2.447,0,0,0,9.352,9.562c-2.369,0-4.153,2.153-4.153,5,0,2.133,1.271,3.589,3.148,3.589a2.917,2.917,0,0,0,2.6-1.436l.164-.01v.082c.092.861,1.015,1.456,2.225,1.456,2.8,0,4.778-2.594,4.778-6.224C18.119,8.013,14.9,5.234,10.285,5.234Zm1.128,8.06c0,1.784-1.148,3.23-2.563,3.23-1.077,0-1.753-.8-1.753-2.082,0-1.825,1.066-3.2,2.492-3.2A1.833,1.833,0,0,1,11.413,13.294Z" transform="translate(-0.882 -5.234)" fill="#282c33"/>
</svg>
