<svg xmlns="http://www.w3.org/2000/svg" width="20.578" height="24.32" viewBox="0 0 20.578 24.32">
  <g id="CARTE-INTERACTIVE" transform="translate(0 0)">
    <g id="CARTE-Détail-trajet" transform="translate(0 0)">
      <g id="DETAIL">
        <g id="Group-9-Copy">
          <path id="Fill-1" d="M18.373,8.532V20.466a1.519,1.519,0,0,1-1.282,1.567.883.883,0,0,1-.135,0q-6.669,0-13.336,0a1.449,1.449,0,0,1-1.3-.925,1.618,1.618,0,0,1-.117-.627q0-5.981,0-11.963V8.363h2.2v.158c0,.586,0,1.173,0,1.759a1.113,1.113,0,0,0,.477.912,1.079,1.079,0,0,0,1.675-.623,1.814,1.814,0,0,0,.049-.415c0-.591,0-1.182,0-1.786h7.349v.151c0,.585,0,1.172,0,1.758a1.115,1.115,0,0,0,.474.913,1.08,1.08,0,0,0,1.677-.621,1.808,1.808,0,0,0,.049-.4c0-.549,0-1.1,0-1.646v-.16h2.205ZM9.647,2.339a3.544,3.544,0,0,1,2.078.241,3.621,3.621,0,0,1,1.62,1.387,3.781,3.781,0,0,1,.6,2.09H6.631A3.728,3.728,0,0,1,9.647,2.339Zm10.931,3.9V6.074H16.16a6.119,6.119,0,0,0-.868-3.19A5.916,5.916,0,0,0,12.915.636,5.646,5.646,0,0,0,9.778.023,5.557,5.557,0,0,0,6.326,1.589,6.149,6.149,0,0,0,4.4,6.074H0v.151q0,7.144,0,14.287a3.929,3.929,0,0,0,.065.751,3.72,3.72,0,0,0,.7,1.578A3.47,3.47,0,0,0,3.578,24.31c4.44.016,8.882.009,13.323,0a3.785,3.785,0,0,0,.777-.087A3.6,3.6,0,0,0,19.913,22.7a3.791,3.791,0,0,0,.662-2.227q.009-7.115,0-14.231Z" transform="translate(0 0)" fill="#e6582b" fill-rule="evenodd"/>
        </g>
      </g>
    </g>
  </g>
</svg>
